{
  "asset": {
    "version": "2.0",
    "generator": "ssk2gltf"
  },
  "scene": 0,
  "scenes": [
    {
      "nodes": [
        0
      ]
    }
  ],
  "nodes": [
    {
      "mesh": 0
    }
  ],
  "meshes": [
    {
      "primitives": [
        {
          "attributes": {
            "POSITION": 0,
            "NORMAL": 1
          },
          "indices": 2,
          "mode": 4
        }
      ]
    }
  ],
  "accessors": [
    {
      "bufferView": 0,
      "byteOffset": 0,
      "componentType": 5126,
      "count": 1179840,
      "type": "VEC3",
      "min": [
        -0.15598970651626587,
        -0.06699804216623306,
        -0.1785714328289032
      ],
      "max": [
        0.18700000643730164,
        0.06699678301811218,
        0.1786104142665863
      ]
    },
    {
      "bufferView": 1,
      "byteOffset": 0,
      "componentType": 5126,
      "count": 1179840,
      "type": "VEC3"
    },
    {
      "bufferView": 2,
      "byteOffset": 0,
      "componentType": 5125,
      "count": 1179840,
      "type": "SCALAR"
    }
  ],
  "bufferViews": [
    {
      "buffer": 0,
      "byteOffset": 0,
      "byteLength": 14158080,
      "target": 34962
    },
    {
      "buffer": 0,
      "byteOffset": 14158080,
      "byteLength": 14158080,
      "target": 34962
    },
    {
      "buffer": 0,
      "byteOffset": 28316160,
      "byteLength": 4719360,
      "target": 34963
    }
  ],
  "buffers": [
    {
      "byteLength": 33035520,
      "uri": "knot.bin"
    }
  ]
}